<?xml version="1.0" encoding="utf-8"?>
<!-- Generator: Adobe Illustrator 18.1.1, SVG Export Plug-In . SVG Version: 6.00 Build 0)  -->
<svg version="1.1" id="Capa_1" xmlns="http://www.w3.org/2000/svg" xmlns:xlink="http://www.w3.org/1999/xlink" x="0px" y="0px"
	 viewBox="-39 41 120 120" enable-background="new -39 41 120 120" xml:space="preserve">
<g>
	<circle fill="#F76666" cx="21.1" cy="101" r="52.7"/>
	<g>
		<path fill="#FFFFFF" d="M20.6,96.8c0.7,0.7,0.7,1.9,0,2.6l-5.9,5.9c-0.7,0.7-1.9,0.7-2.6,0l-5.9-5.9c-0.7-0.7-0.7-1.9,0-2.6
			l5.9-5.9c0.7-0.7,1.9-0.7,2.6,0L20.6,96.8z"/>
		<path fill="#FFFFFF" d="M35.9,96.8c0.7,0.7,0.7,1.9,0,2.6l-5.9,5.9c-0.7,0.7-1.9,0.7-2.6,0l-5.9-5.9c-0.7-0.7-0.7-1.9,0-2.6
			l5.9-5.9c0.7-0.7,1.9-0.7,2.6,0L35.9,96.8z"/>
		
			<rect x="15.9" y="98.2" transform="matrix(-0.7071 -0.7071 0.7071 -0.7071 -37.0444 194.7768)" fill="#FFFFFF" width="11.9" height="13.7"/>
	</g>
	<circle fill="none" stroke="#CB6463" stroke-width="2" stroke-miterlimit="10" cx="21.1" cy="101" r="59.1"/>
</g>
</svg>
